<svg viewBox="0 0 512 512" xmlns="http://www.w3.org/2000/svg"><path fill="#ffffff" d="m393 224 2-7c2-5 4-10 2-15s-6-8-10-11l-1-1a128 128 0 0 0 1-15 131 131 0 0 0-262 0 127 127 0 0 0 1 15l-1 1c-4 3-8 6-10 11s0 10 2 15l2 7-2 7c-2 5-4 10-2 15s6 8 10 11l6 5 2 7c1 5 2 10 6 14 4 3 9 4 13 4 3 1 6 1 8 3l5 5c2 4 5 8 10 11h1l60 148a22 22 0 0 0 20 14 22 22 0 0 0 20-14l60-148h1c5-3 8-7 10-11l5-5c2-2 5-2 8-3 4 0 9-1 13-4 4-4 5-9 6-14l2-7 6-5c4-3 8-6 10-11s0-10-2-15l-2-7Zm-40-19a5 5 0 0 1-5-7 92 92 0 0 0 3-23 5 5 0 1 1 10 0 102 102 0 0 1-3 26 5 5 0 0 1-5 4Zm-202-19a103 103 0 0 1 0-11 104 104 0 0 1 9-42 5 5 0 1 1 9 4 94 94 0 0 0-8 38 93 93 0 0 0 1 10 5 5 0 0 1-5 6 5 5 0 0 1-1 0 5 5 0 0 1-5-5Zm9 70a5 5 0 0 1 5-9c4 1 6 4 8 7l6 6h20l10 5 8 5 8-2 12-2a5 5 0 1 1-1 10l-8 2-10 2a16 16 0 0 1-3 0c-5-1-9-4-12-7l-6-3h-9c-4 0-9 1-13-1-5-2-7-5-10-9-2-2-3-4-5-4Zm43-160a96 96 0 0 0-8 6 5 5 0 0 1-7-7 106 106 0 0 1 9-7 5 5 0 0 1 6 8Zm64 354a12 12 0 0 1-11 7 12 12 0 0 1-11-7l-58-143 1-1h9l6 5c3 3 7 6 12 7 4 1 9-1 13-2l8-2 7 3c4 2 8 5 13 5s9-3 13-5l7-3 8 2c4 1 9 3 13 2 5-1 9-4 12-7l6-5h8l2 1Z"/><path  d="M225 347a5 5 0 0 0-7 7l49 50a5 5 0 1 0 7-8ZM270 332a5 5 0 1 0-7 7l21 22a5 5 0 0 0 8-8Z"/></svg>