<?xml version="1.0" standalone="no"?>
<!DOCTYPE svg PUBLIC "-//W3C//DTD SVG 20010904//EN"
 "http://www.w3.org/TR/2001/REC-SVG-20010904/DTD/svg10.dtd">
<svg version="1.0" xmlns="http://www.w3.org/2000/svg"
 width="512.000000pt" height="512.000000pt" viewBox="0 0 512.000000 512.000000"
 preserveAspectRatio="xMidYMid meet">
<metadata>
Created by potrace 1.14, written by Peter Selinger 2001-2017
</metadata>
<g transform="translate(0.000000,512.000000) scale(0.100000,-0.100000)"
fill="#000000" stroke="none">
<path d="M2210 5035 c-65 -18 -167 -67 -231 -111 -245 -169 -391 -436 -406
-741 -6 -129 5 -193 48 -270 16 -29 29 -55 29 -57 0 -2 -21 -7 -47 -12 -27 -4
-50 -8 -53 -9 -68 -20 -94 -30 -140 -57 -30 -17 -80 -56 -110 -87 -125 -128
-171 -333 -110 -493 l18 -49 -56 -26 c-126 -59 -261 -176 -337 -293 -97 -148
-139 -291 -139 -470 0 -125 20 -210 75 -327 39 -82 39 -83 23 -115 -13 -26
-16 -65 -17 -222 0 -214 6 -241 68 -277 29 -17 34 -27 40 -72 4 -29 9 -59 10
-67 2 -8 6 -37 9 -65 13 -103 37 -275 41 -293 2 -11 6 -43 10 -73 3 -30 11
-85 16 -124 5 -38 12 -92 15 -120 3 -27 10 -58 15 -67 5 -10 7 -18 4 -18 -12
0 56 -116 90 -153 19 -20 37 -37 40 -37 3 0 22 -11 43 -25 67 -44 112 -48 512
-49 206 -1 380 -5 386 -9 6 -3 14 -3 18 1 10 10 149 10 163 0 6 -5 13 -5 16
-1 7 11 279 9 296 -2 8 -5 12 -4 8 1 -6 10 442 12 459 1 6 -3 14 -3 18 1 10
10 149 10 163 0 6 -5 13 -5 16 -1 6 10 267 10 283 0 6 -3 14 -3 18 0 11 12
289 10 305 -2 11 -7 13 -7 8 1 -6 11 9 16 77 31 11 2 27 10 36 18 9 8 20 15
24 15 17 0 87 64 122 111 42 58 69 124 78 194 12 91 46 339 52 375 3 19 14 98
24 175 11 77 22 162 26 190 5 35 14 55 31 68 49 39 54 63 54 273 0 179 -2 199
-20 230 l-21 35 31 61 c201 398 40 885 -361 1088 -36 19 -66 34 -68 35 -1 1 5
22 14 46 27 71 24 238 -5 318 -63 178 -222 308 -411 336 -25 4 -46 8 -48 10
-2 2 8 24 22 48 69 126 73 285 10 415 -36 73 -122 163 -191 200 -95 50 -146
58 -368 56 -287 -2 -426 23 -498 89 -52 48 -63 102 -43 192 15 62 12 88 -14
130 -32 52 -96 71 -170 50z"/>
<path d="M1210 246 c0 -2 7 -7 16 -10 8 -3 12 -2 9 4 -6 10 -25 14 -25 6z"/>
<path d="M1273 235 c0 -8 4 -12 9 -9 5 3 6 10 3 15 -9 13 -12 11 -12 -6z"/>
</g>
</svg>
